<svg xmlns="http://www.w3.org/2000/svg" width="1200" height="720" fill="none" viewBox="0 0 1200 720"><rect width="1200" height="720" fill="url(#paint0_linear_4_2)" rx="48"/><rect width="1000" height="512" x="100" y="104" fill="#FFFDFB" fill-opacity=".8" rx="42"/><circle cx="986" cy="244" r="110" fill="#D3FFF0"/><circle cx="233" cy="500" r="138" fill="#FFE1D5" fill-opacity=".72"/><rect width="284" height="372" x="164" y="174" fill="#F16C3E" rx="34"/><rect width="548" height="154" x="488" y="174" fill="#102C3A" rx="34"/><rect width="254" height="186" x="488" y="360" fill="#FFF3EB" rx="30"/><rect width="254" height="186" x="782" y="360" fill="#0F8B8D" rx="30"/><path stroke="#FFEADf" stroke-linecap="round" stroke-width="18" d="M226 248H382"/><path stroke="#FFEADf" stroke-linecap="round" stroke-width="14" d="M226 292H336"/><path stroke="#D8FFF7" stroke-linecap="round" stroke-width="24" d="M542 234H960"/><path stroke="#7EBCC0" stroke-linecap="round" stroke-width="16" d="M542 282H892"/><path stroke="#1F1A17" stroke-linecap="round" stroke-width="18" d="M552 430H678"/><path stroke="#D7FFF6" stroke-linecap="round" stroke-width="18" d="M848 430H970"/><path stroke="#D7FFF6" stroke-linecap="round" stroke-width="14" d="M848 476H930"/><defs><linearGradient id="paint0_linear_4_2" x1="89" x2="1090" y1="60" y2="666" gradientUnits="userSpaceOnUse"><stop stop-color="#FFF5EE"/><stop offset="1" stop-color="#E8DED4"/></linearGradient></defs></svg>