<svg xmlns="http://www.w3.org/2000/svg" width="1200" height="720" fill="none" viewBox="0 0 1200 720"><rect width="1200" height="720" fill="url(#paint0_linear_1_2)" rx="48"/><circle cx="196" cy="168" r="112" fill="#FFE4DA" fill-opacity=".65"/><circle cx="1006" cy="574" r="154" fill="#D4FFF7" fill-opacity=".5"/><rect width="417" height="454" x="133" y="146" fill="#FFF8F3" rx="34"/><rect width="420" height="224" x="635" y="112" fill="#1B4D5A" fill-opacity=".92" rx="34"/><rect width="260" height="164" x="635" y="372" fill="#F16C3E" rx="28"/><rect width="133" height="164" x="922" y="372" fill="#FFF8F3" rx="28"/><rect width="183" height="20" x="178" y="214" fill="#F7D9CC" rx="10"/><rect width="286" height="54" x="178" y="254" fill="#F16C3E" rx="18"/><rect width="320" height="14" x="178" y="334" fill="#D7C3B7" rx="7"/><rect width="280" height="14" x="178" y="366" fill="#D7C3B7" rx="7"/><rect width="152" height="114" x="178" y="436" fill="#FFF0E9" rx="24"/><rect width="152" height="114" x="348" y="436" fill="#FFF0E9" rx="24"/><path stroke="#D4FFF7" stroke-linecap="round" stroke-width="20" d="M735 209H955"/><path stroke="#7FBDC1" stroke-linecap="round" stroke-width="16" d="M735 257H885"/><path fill="#FFF8F3" d="M715 433C715 406.49 736.49 385 763 385H767C793.51 385 815 406.49 815 433V475C815 501.51 793.51 523 767 523H763C736.49 523 715 501.51 715 475V433Z"/><path stroke="#F16C3E" stroke-linecap="round" stroke-width="18" d="M959 430H1021"/><path stroke="#1B4D5A" stroke-linecap="round" stroke-width="18" d="M959 467H1010"/><defs><linearGradient id="paint0_linear_1_2" x1="91" x2="1086" y1="36" y2="654" gradientUnits="userSpaceOnUse"><stop stop-color="#FFF7F1"/><stop offset="1" stop-color="#F1E1D2"/></linearGradient></defs></svg>