<svg width="1200" height="720" viewBox="0 0 1200 720" fill="none" xmlns="http://www.w3.org/2000/svg">
  <rect width="1200" height="720" rx="48" fill="url(#paint0_linear_1_2)"/>
  <circle cx="196" cy="168" r="112" fill="#FFE4DA" fill-opacity="0.65"/>
  <circle cx="1006" cy="574" r="154" fill="#D4FFF7" fill-opacity="0.5"/>
  <rect x="133" y="146" width="417" height="454" rx="34" fill="#FFF8F3"/>
  <rect x="635" y="112" width="420" height="224" rx="34" fill="#1B4D5A" fill-opacity="0.92"/>
  <rect x="635" y="372" width="260" height="164" rx="28" fill="#F16C3E"/>
  <rect x="922" y="372" width="133" height="164" rx="28" fill="#FFF8F3"/>
  <rect x="178" y="214" width="183" height="20" rx="10" fill="#F7D9CC"/>
  <rect x="178" y="254" width="286" height="54" rx="18" fill="#F16C3E"/>
  <rect x="178" y="334" width="320" height="14" rx="7" fill="#D7C3B7"/>
  <rect x="178" y="366" width="280" height="14" rx="7" fill="#D7C3B7"/>
  <rect x="178" y="436" width="152" height="114" rx="24" fill="#FFF0E9"/>
  <rect x="348" y="436" width="152" height="114" rx="24" fill="#FFF0E9"/>
  <path d="M735 209H955" stroke="#D4FFF7" stroke-width="20" stroke-linecap="round"/>
  <path d="M735 257H885" stroke="#7FBDC1" stroke-width="16" stroke-linecap="round"/>
  <path d="M715 433C715 406.49 736.49 385 763 385H767C793.51 385 815 406.49 815 433V475C815 501.51 793.51 523 767 523H763C736.49 523 715 501.51 715 475V433Z" fill="#FFF8F3"/>
  <path d="M959 430H1021" stroke="#F16C3E" stroke-width="18" stroke-linecap="round"/>
  <path d="M959 467H1010" stroke="#1B4D5A" stroke-width="18" stroke-linecap="round"/>
  <defs>
    <linearGradient id="paint0_linear_1_2" x1="91" y1="36" x2="1086" y2="654" gradientUnits="userSpaceOnUse">
      <stop stop-color="#FFF7F1"/>
      <stop offset="1" stop-color="#F1E1D2"/>
    </linearGradient>
  </defs>
</svg>
