<svg xmlns="http://www.w3.org/2000/svg" width="1200" height="720" fill="none" viewBox="0 0 1200 720"><rect width="1200" height="720" fill="url(#paint0_linear_3_2)" rx="48"/><circle cx="960" cy="180" r="130" fill="#FDE2D6"/><circle cx="199" cy="532" r="118" fill="#D4FFF7" fill-opacity=".75"/><rect width="454" height="472" x="120" y="124" fill="#FFFDFB" rx="38"/><rect width="458" height="232" x="622" y="124" fill="#1E2E3A" rx="38"/><rect width="458" height="208" x="622" y="388" fill="#FFFDFB" rx="38"/><rect width="334" height="72" x="180" y="188" fill="#F3E1D7" rx="24"/><rect width="246" height="18" x="180" y="294" fill="#D6C4BA" rx="9"/><rect width="280" height="18" x="180" y="334" fill="#D6C4BA" rx="9"/><rect width="148" height="118" x="180" y="416" fill="#F16C3E" rx="28"/><rect width="164" height="118" x="350" y="416" fill="#0F8B8D" rx="28"/><path stroke="#D4FFF7" stroke-linecap="round" stroke-width="22" d="M690 204H1002"/><path stroke="#7AB7BB" stroke-linecap="round" stroke-width="18" d="M690 258H932"/><path stroke="#1F1A17" stroke-linecap="round" stroke-width="22" d="M688 468H1014"/><path stroke="#AC9180" stroke-linecap="round" stroke-width="16" d="M688 520H948"/><rect width="186" height="20" x="688" y="553" fill="#F16C3E" rx="10"/><defs><linearGradient id="paint0_linear_3_2" x1="109" x2="1080" y1="57" y2="671" gradientUnits="userSpaceOnUse"><stop stop-color="#FFF8F2"/><stop offset="1" stop-color="#EEE2D7"/></linearGradient></defs></svg>